<?xml version="1.0" standalone="no"?>
<!DOCTYPE svg PUBLIC "-//W3C//DTD SVG 20010904//EN"
 "http://www.w3.org/TR/2001/REC-SVG-20010904/DTD/svg10.dtd">
<svg version="1.0" xmlns="http://www.w3.org/2000/svg"
 width="256.000000pt" height="256.000000pt" viewBox="0 0 256.000000 256.000000"
 preserveAspectRatio="xMidYMid meet">
<metadata>
Created by potrace 1.16, written by Peter Selinger 2001-2019
</metadata>
<g transform="translate(0.000000,256.000000) scale(0.100000,-0.100000)"
fill="#000000" stroke="none">
<path d="M1048 2544 c-261 -47 -496 -173 -685 -367 -106 -109 -167 -193 -228
-313 -93 -181 -135 -365 -135 -584 0 -364 127 -668 383 -917 109 -106 193
-167 313 -228 181 -93 365 -135 584 -135 219 0 403 42 584 135 120 61 204 122
313 228 197 192 321 426 368 693 19 112 19 336 0 448 -33 186 -112 375 -221
527 -67 92 -213 237 -305 302 -144 102 -336 181 -515 212 -108 19 -350 18
-456 -1z m402 -554 l250 0 0 -140 0 -140 -247 -2 -248 -3 -3 -365 c-4 -495 5
-554 92 -624 37 -30 41 -31 144 -31 116 0 169 13 276 66 33 16 61 29 63 29 1
0 3 -64 3 -143 l0 -143 -47 -23 c-97 -48 -162 -63 -304 -68 -148 -6 -205 4
-303 54 -66 33 -150 114 -177 171 -48 99 -51 130 -56 620 l-5 462 -134 0
c-115 0 -134 2 -134 16 0 8 129 143 288 298 l287 283 3 -158 2 -159 250 0z"/>
</g>
</svg>
